<svg xmlns="http://www.w3.org/2000/svg" width="720" height="720" fill="none">
  <path fill="#143a20" d="M162.622 324.52c1-1.5 3.648-5.001 7.25-5.001s5.75 2.501 7.75 5.001c2 2.499 78 108.999 79.5 110.999s1.786 3.992 1 6.001c-.556 1.42-1.5 2.5-2.5 3-1 .499-17.333 4.333-18.5 4.5s-3.774.257-6-.5c-1.24-.423-2.833-1.334-3-1.5-.167-.167-40.5-54-40.5-54v36c25 34.166 71 96.999 72.5 98.999l.101.134c1.519 2.024 4.152 5.531 3.899 9.366-.301 4.565-7 9-7 9s-10.5 7.5-16.5 6.001c-1.235-.437-1.5-.501-3-1.5-4-2.501-50-66-50-66s-.333 119.833-.5 127c-.167 7.166 0 21.499-.5 23-.5 1.499-2.5 2.499-5 3-2 .333-6.077.87-10 1-4.493.148-8.5 0-11.5-.5-2.4-.4-3.241-.933-4.5-2.5-1.16-1.444-1.5-3-1.5-4.5v-153.5l-88.5 126.5c15.333 0 52.5.5 52.5.5s7.029-.006 9.5 3c1.806 2.196 2 7 2 7s-.064 5.446-.5 17c0 1.999-2.5 6.999-10 7h-100.5c-2.257 0-6.388-.901-8-4-1.542-2.966.167-7.167 1-8.5s142.5-207.5 142.5-207.5v-22.5c-9.167 13.666-32.5 47-32.5 47s-3.085 5.498-6.5 6.999c-1.998.879-5.5 1-5.5 1l-10.5.5s-4.374.284-7-.5c-2.092-.624-5-2.5-5-2.5-1.674-1.401-2.383-2.82-2.5-4.999-.086-1.608 1-4 1-4zM191.122 328.019c-3.6-6-5.5-11.5-6-13.5l69-120.5c1.667-1.833 5.8-5.5 9-5.5s7 2.667 8.5 4l36.5 61 99-164c1.667-3 6-8.9 10-8.5s7 3.5 8 5l108.5 187.5c.167-.5 1.3-2.5 4.5-6.5 4-5 6.5-7 10.5-7 3.2 0 6.333 2.667 7.5 4 26.5 41.334 80.6 125.8 85 133s-1.167 10.334-4.5 11l-21 .5c-6.4 1.2-11-3.833-12.5-6.5l-55.5-88-25 34c57.333 85.5 184 273.5 184 273.5 9.6 13.6-1 17.334-7.5 17.5l-133.5-.5c-9-1-8-9.5-10.5-21-2-9.2 5.5-12.5 9.5-13l89.5.5-153-228c-8.667 11.334-27.9 37.1-35.5 49.5s-10.833 15.834-11.5 16c-10.5 2-20.5 0-28-2.5-6-2-3.5-9.5-1.5-13l88.5-125-96.5-166-90 149c6 10.167 18.9 32.2 22.5 39s-2.5 13.167-6 15.5c-11.2 12.4-18 7.5-20 3.5l-59.5-100.5c-16 27.334-49.3 84.201-54.5 93-6.5 11-13.5 0-18-7.5"/>
  <path fill="#143a20" d="M399.453 603.019h46.669c4.833 0 13.4 3 9 15-4.058 11.068-5.026 13.913-5.021 14.027l.021-.027q-.02.04-.021.027c-1.864 2.339-8.828 6.669-21.979 5.473-13.2-1.2-53.5-.5-72 0-6.833-.5-19-3.2-13-10s89.5-133.5 130.5-196c2-3.833 8.2-9.2 17 0s32 33.167 42.5 44c1.167 1.5 2 6.5-4 14.5s-8.167 9.667-8.5 9.5c-1.667.5-6.2.5-11-3.5s-18.333-14.666-24-20.5l-7.5 10 27.5 22.5c1.667 1.834 5.5 8.5 0 15.5-4.543 5.783-10 10.5-10 10.5-2.5 1.667-8 0-14-5 0 0-17.167-15.166-21-18.5z"/>
  <path stroke="#143a20" d="M399.122 603.019h47c4.833 0 13.4 3 9 15s-5.167 14.334-5 14c-1.833 2.334-8.8 6.7-22 5.5s-53.5-.5-72 0c-6.833-.5-19-3.2-13-10s89.5-133.5 130.5-196c2-3.833 8.2-9.2 17 0s32 33.167 42.5 44c1.167 1.5 2 6.5-4 14.5s-8.167 9.667-8.5 9.5c-1.667.5-6.2.5-11-3.5s-18.333-14.666-24-20.5l-7.5 10 27.5 22.5c1.667 1.834 5.5 8.5 0 15.5-4.543 5.783-10 10.5-10 10.5-2.5 1.667-8 0-14-5 0 0-17.167-15.166-21-18.5l-61.5 93m-229.25-284c-3.602 0-6.25 3.501-7.25 5.001l-77 115.5s-1.086 2.392-1 4c.117 2.179.826 3.598 2.5 4.999 0 0 2.908 1.876 5 2.5 2.626.784 7 .5 7 .5l10.5-.5s3.502-.121 5.5-1c3.415-1.501 6.5-6.999 6.5-6.999s23.333-33.334 32.5-47v22.5s-141.667 206.166-142.5 207.5c-.833 1.333-2.542 5.534-1 8.5 1.612 3.099 5.743 4 8 4h100.5c7.5-.001 10-5.001 10-7 .436-11.554.5-17 .5-17s-.194-4.804-2-7c-2.471-3.006-9.5-3-9.5-3s-37.167-.5-52.5-.5l88.5-126.5v153.5c0 1.5.34 3.056 1.5 4.5 1.259 1.567 2.1 2.1 4.5 2.5 3 .5 7.007.648 11.5.5 3.923-.13 8-.667 10-1 2.5-.501 4.5-1.501 5-3 .5-1.501.333-15.834.5-23s.5-127 .5-127 46 63.499 50 66c1.5.999 1.765 1.064 3 1.5 6 1.499 16.5-6.001 16.5-6.001s6.699-4.435 7-9c.259-3.921-2.5-7.5-4-9.5s-47.5-64.833-72.5-98.999v-36s40.333 53.833 40.5 54c.167.166 1.76 1.077 3 1.5 2.226.757 4.833.666 6 .5s17.5-4.001 18.5-4.5c1-.5 1.944-1.58 2.5-3 .786-2.009.5-4.001-1-6.001s-77.5-108.5-79.5-110.999c-2-2.5-4.148-5.001-7.75-5.001Zm15.25-5c.5 2 2.4 7.5 6 13.5 4.5 7.5 11.5 18.5 18 7.5 5.2-8.799 38.5-65.666 54.5-93l59.5 100.5c2 4 8.8 8.9 20-3.5 3.5-2.333 9.6-8.7 6-15.5s-16.5-28.833-22.5-39l90-149 96.5 166-88.5 125c-2 3.5-4.5 11 1.5 13 7.5 2.5 17.5 4.5 28 2.5.667-.166 3.9-3.6 11.5-16s26.833-38.166 35.5-49.5l153 228-89.5-.5c-4 .5-11.5 3.8-9.5 13 2.5 11.5 1.5 20 10.5 21l133.5.5c6.5-.166 17.1-3.9 7.5-17.5 0 0-126.667-188-184-273.5l25-34 55.5 88c1.5 2.667 6.1 7.7 12.5 6.5l21-.5c3.333-.666 8.9-3.8 4.5-11s-58.5-91.666-85-133c-1.167-1.333-4.3-4-7.5-4-4 0-6.5 2-10.5 7-3.2 4-4.333 6-4.5 6.5l-108.5-187.5c-1-1.5-4-4.6-8-5s-8.333 5.5-10 8.5l-99 164-36.5-61c-1.5-1.333-5.3-4-8.5-4s-7.333 3.667-9 5.5z"/>
</svg>
