<svg xmlns="http://www.w3.org/2000/svg" width="1563" height="295" fill="none">
  <path fill="#143a20" d="M884.913.875c8.223-2.29 17.62-.02 23.703 6.033 10.333 9.327 10.074 27.823-.687 36.733-6.809 6.381-17.292 7.486-25.883 4.609-11.886-3.952-18.665-18.038-14.892-29.884 1.901-8.621 9.298-15.42 17.759-17.49m77.927-.16c12.901-.02 25.802-.069 38.71-.03.07 53.637-.05 107.274.08 160.911 23.68-26.391 48.18-52.014 71.85-78.405 16.06.01 32.14-.09 48.21-.03a7819 7819 0 0 1-67.5 71.705c25.48 32.363 50.77 64.886 75.71 97.667-16.23.099-32.51.398-48.72-.06-16.07-21.711-32.07-43.512-48.69-64.826-2.39-3.225-4.72-6.49-7.51-9.377a4645 4645 0 0 1-23.33 24.081c-.2 16.773.08 33.547-.14 50.331-12.877-.04-25.749.04-38.621-.04-.009-83.969.04-167.947-.049-251.926M557.41 33.309c12.364.07 24.738 0 37.101.04.06 16.604.03 33.209.07 49.814 16.884.129 33.757-.14 50.64.01.09 10.651.08 21.303.09 31.954-16.913.11-33.836-.009-50.75.13-.059 22.707.04 45.404-.01 68.111.1 8.113-.507 16.375 1.553 24.319a20.11 20.11 0 0 0 12.981 14.136c2.419.866 4.988 1.095 7.506 1.623 10.075.527 19.661-3.196 28.352-7.934 2.926 8.899 5.116 18.018 7.934 26.957.079 1.115 1.214 2.997-.249 3.634-14.315 7.695-30.731 11.567-46.987 10.462-13.21-.876-26.898-5.315-36.066-15.27-9.826-10.393-13.29-25.136-13.897-39.043-.08-29.008-.03-58.017-.01-87.025-11.767-.109-23.543.08-35.31-.01.09-10.691-.149-21.383.04-32.074 12.344-.02 24.678.05 37.012-.05.129-16.595-.05-33.19 0-49.784M388.925 81.36c20.357-5.217 42.397-3.803 61.809 4.32 14.992 6.67 28.122 18.058 35.847 32.652 10.234 18.337 12.762 40.008 11.239 60.674-43.92.1-87.851-.179-131.772.11 1.066 12.672 5.904 25.634 15.719 34.115 10.054 9.378 24.3 13.061 37.779 12.493 10.213-.776 20.755-3.832 28.371-11 4.788-4.25 8.163-9.855 10.462-15.788 12.036 3.743 24.041 7.615 36.166 11.08a73.67 73.67 0 0 1-24.538 31.905c-13.33 9.985-29.984 14.693-46.459 15.539-21.632 1.185-44.26-3.145-62.188-15.818-17.551-11.707-28.809-31.009-33.538-51.277-3.176-15.321-3.245-31.308.368-46.549 4.361-16.575 12.703-32.532 25.654-44 9.805-9.109 22.189-15.112 35.081-18.456m-7.128 40.456c-8.74 7.158-13.509 17.909-15.46 28.829 30.581.03 61.172-.03 91.754 0-.797-7.078-2.678-14.156-6.521-20.218-6.132-10.074-17.182-16.316-28.54-18.566-14.295-2.429-29.894.608-41.233 9.955M56.593 89.085c14.624-9.806 33.16-12.543 50.342-9.766 12.383 1.882 24.608 6.75 33.766 15.5 4.659 4.16 8.014 9.516 11.209 14.832 5.237-7.446 11.319-14.554 19.104-19.431 16.694-10.98 37.758-13.907 57.24-10.592 12.882 2.448 25.713 7.615 34.991 17.172 13.439 13.1 18.088 32.562 18.407 50.759-.06 35.031.069 70.062-.09 105.093-12.892 0-25.793.05-38.684 0 .049-28.391-.02-56.792.039-85.193.01-11.488.687-23.523-4.081-34.275-3.972-9.696-13.001-16.883-23.185-19.093-9.766-2.13-20.298-1.742-29.615 2.071a40.72 40.72 0 0 0-21.981 21.99 56.8 56.8 0 0 0-3.066 19.302c-.02 31.706.11 63.412-.04 95.109-12.971.199-25.942.089-38.903.129.02-30.412 0-60.824.03-91.236.05-9.636-.548-19.601-4.44-28.55a33.05 33.05 0 0 0-22.398-18.596c-11.24-2.857-23.613-1.911-34.006 3.405-8.163 4.081-14.464 11.368-18.197 19.601a56.7 56.7 0 0 0-4.191 23.165c-.03 30.72.12 61.431-.11 92.151-12.901.14-25.803-.079-38.704.06C.02 196.169.07 139.655 0 83.132c12.901.11 25.803.01 38.704.05.17 8.322.06 16.654.16 24.986 4.838-7.227 10.373-14.265 17.73-19.083m656.003-.836c15.977-8.631 34.682-11.12 52.601-9.438 14.305 1.663 28.869 5.963 40.108 15.3 9.875 7.586 16.345 19.074 19.093 31.1-11.687 2.916-23.374 5.873-35.23 8.013-1.991-6.182-4.808-12.563-10.353-16.355-8.531-6.083-19.571-7.307-29.755-6.461-7.088.876-14.723 2.966-19.501 8.631-4.152 4.688-4.839 12.164-1.165 17.331 3.593 5.326 10.124 7.287 15.947 9.079 14.793 3.902 29.925 6.441 44.568 10.93 11.249 3.355 22.558 8.422 30.432 17.441 7.476 8.223 10.313 19.601 10.652 30.472-.11 10.462-2.758 21.293-9.457 29.556-7.377 10.024-18.855 16.106-30.592 19.541-15.898 4.918-32.9 5.117-49.276 2.837-12.215-1.832-24.26-5.983-34.483-12.971-12.444-8.402-20.985-21.821-24.728-36.226 12.274-2.678 24.389-6.062 36.713-8.491 1.971 7.028 5.147 13.986 10.921 18.715 10.601 9.069 25.514 10.741 38.923 9.258 6.51-1.155 13.27-3.186 18.177-7.854 5.237-5.237 6.82-14.116 2.818-20.527-2.808-4.739-8.293-6.79-13.24-8.482-20.766-6.689-43.115-8.213-62.925-17.859-9.367-4.629-18.117-11.806-22-21.771-4.38-11.07-4.947-23.623-1.045-34.921 3.454-11.657 12.583-20.746 22.797-26.848m158.629-5.028c13.091-.05 26.202-.258 39.302-.04.04 56.454.06 112.918-.04 169.382-13.09.169-26.171.059-39.252.049-.029-56.463-.069-112.927-.01-169.39m355.395 73.935c6.9-8.153 17.57-12.185 27.99-13.22a68.7 68.7 0 0 1 26.11 2.439c8.32 2.588 16.09 8.302 19.52 16.535 2 5.246 3.04 10.81 3.06 16.425q0 25.434.03 50.869c0 4.33-.26 8.701.4 13.001.42 3.245 1.94 6.212 2.64 9.407-5.12.13-10.22.07-15.32.09-1-5.754-1.75-11.577-1.66-17.431-4.48 6.54-10.26 12.473-17.51 15.858-9.83 4.679-21.21 5.206-31.78 3.235-9.19-1.831-18.19-6.998-22.72-15.449-3.55-6.571-3.82-14.315-2.79-21.563 1.51-8.073 7.14-15.061 14.39-18.784 11.89-6.401 25.67-7.208 38.85-8.074 7.12-.896 14.64-.607 21.24-3.832-.07-7.566 1.03-16.247-4.21-22.468-5.75-7.098-15.53-8.731-24.15-8.551-8.16-.15-16.97 2.12-22.51 8.441-3.6 3.883-4.77 9.218-5.95 14.216-4.69-.598-9.36-1.374-14.06-1.742 1.27-6.979 3.6-14.037 8.43-19.402m26.77 46.24c-7.62 1.155-16.04 3.006-21.16 9.278-6.43 7.695-4.61 20.616 3.74 26.191 8.39 5.654 19.24 5.475 28.74 3.215 9.76-2.13 18.49-9.138 22.17-18.476 3.09-8.004 2.15-16.724 2.36-25.106-11.7 3.225-23.92 3.106-35.85 4.898m112.51-55.22c18.98-8.959 44.15-4.877 57.84 11.558 11.61 14.126 14.46 33.607 12.08 51.297-2.02 15.45-10.23 30.97-24.38 38.426-11.75 6.311-25.97 7.506-38.75 3.932-9.73-2.887-17.64-9.975-23.14-18.327-.18 19.969-.1 39.949-.11 59.928-4.78-.026-9.57-.023-14.36.01-.03-49.545-.19-99.09.04-148.635 4.6-.027 9.2-.004 13.82.069.18 5.864.16 11.737.19 17.61 4.07-6.659 9.57-12.573 16.77-15.868m-12.66 26.44c-3.89 7.606-5.16 16.217-4.82 24.688-.46 12.195 2.79 25.216 11.69 34.016 13.42 13.977 39.08 13.429 51.54-1.593 6.22-7.396 9.73-17.032 10.18-26.659l.43-.667c.03-3.325.16-6.67-.32-9.965-.72-13.05-6.58-26.668-18.06-33.697-7.76-5.126-17.53-5.863-26.52-4.639-10.31 1.991-19.73 8.89-24.12 18.516m145.44-29.058c17.48-4.967 38.07-.517 50.48 13.21 10.05 11.18 14.2 26.659 13.8 41.472.24 16.286-5.35 33.498-18.02 44.299-9.49 7.984-22.19 11.299-34.42 10.861-10.1-.578-20.43-4.132-27.6-11.508a67.4 67.4 0 0 1-7.53-9.119c-.23 20.069-.03 40.148-.17 60.227-4.61-.013-9.21-.017-13.79-.01-.06-49.525-.15-99.05.01-148.576 4.56.02 9.13-.01 13.7.02.17 5.963.13 11.936.15 17.899a39.22 39.22 0 0 1 23.39-18.775m4.4 10.722a38.7 38.7 0 0 0-12.91 5.535c-8.13 5.574-12.97 14.982-14.62 24.518-1.68 9.895-1.59 20.179.9 29.934 2.6 8.85 7.68 17.471 15.78 22.299 12.43 7.148 29.15 6.481 40.75-2.08 9.29-7.098 14.21-18.735 15.05-30.183 1.88-15.829-2.19-33.976-15.53-43.971-8.25-6.401-19.37-7.765-29.42-6.052m-335.27 73.645c6.11-2.916 14.62-.308 17.24 6.152 1.84 5.376.98 12.474-4.18 15.719-5.04 3.743-12.59 2.957-16.89-1.543-5.87-5.754-3.91-17.222 3.83-20.328"/>
</svg>
